:SAMPLES-PER-SECOND 30
:FRAME-RANGE 1-2643
:FULLY-SPECIFIED
:DEGREES
909
root  63.1939 33.1245 -65.7937 -173.135 -24.8305 -169.707
RightUpLeg  -42.9079 10.1248 7.41069
RightLeg  62.66 -1.14524 -2.96662
RightFoot  -33.4654 0.83796 5.45097
RightToes  5.38607e-012 1.2921e-014 -6.02303e-014
Spine  17.06 -9.36706 -12.4939
Spine1  -15.5257 -11.125 14.4063
HEad  -20.2538 58.6162 -35.7535
LeftShoulder1  3.36505 -12.1505 -15.1829
LeftArm  -11.0317 -18.556 -47.4234
LeftForeArm  13.7087 7.64738 -10.6044
LeftHand  0.0538658 6.8949 6.40136
RightShoulder  0.257278 -2.31431 18.5808
RightArm  -26.7024 17.7239 38.9439
RightForeArm  46.2393 12.8688 4.63048
RightHand  -0.138464 -4.53626 -17.2992
LeftUpLeg  -11.1773 10.18 4.21327
LeftLeg  81.0342 -1.43336 -9.37792
LeftFoot  -8.44489 0.394969 -13.5768
LeftToes  -4.79707e-012 -5.93756e-011 -7.55542e-012
910
root  61.4472 32.8631 -67.5251 -174.625 -20.003 -169.38
RightUpLeg  -37.4536 12.606 6.92168
RightLeg  64.0944 -0.3098 -1.28805
RightFoot  -36.4893 0.997868 5.58975
RightToes  5.38607e-012 1.2921e-014 -6.02303e-014
Spine  17.1532 -8.18445 -12.0341
Spine1  -14.2381 -10.1765 11.7564
HEad  -27.5874 56.969 -40.097
LeftShoulder1  3.39019 -11.8549 -15.8304
LeftArm  -12.6033 -13.4899 -40.8669
LeftForeArm  12.0764 7.5557 -10.0372
LeftHand  0.036708 7.01344 4.89133
RightShoulder  0.413654 -1.62039 17.4971
RightArm  -16.8064 25.2047 47.093
RightForeArm  38.6005 24.1742 3.16942
RightHand  -0.146274 -4.46228 -16.8809
LeftUpLeg  -20.6376 10.1498 7.04343
LeftLeg  92.4657 0.352961 -8.04025
LeftFoot  -13.612 -0.142179 -11.2486
LeftToes  -4.79707e-012 -5.93756e-011 -7.55542e-012
911
root  59.5603 32.7291 -69.2709 -176.756 -17.9551 -169.67
RightUpLeg  -30.2535 10.5681 5.56132
RightLeg  64.179 1.17629 2.06984
RightFoot  -40.1478 0.857246 4.40993
RightToes  5.38607e-012 1.2921e-014 -6.02303e-014
Spine  16.5655 -6.79787 -10.0323
Spine1  -11.3186 -8.69585 7.21168
HEad  -24.6618 54.5968 -36.1982
LeftShoulder1  3.26562 -11.2146 -15.9739
LeftArm  -14.4404 -10.4859 -38.1485
LeftForeArm  15.8552 7.37609 -8.91808
LeftHand  0.0644222 7.18086 6.16504
RightShoulder  0.673623 -0.222101 14.8446
RightArm  -13.7125 28.4347 51.4727
RightForeArm  38.7765 36.0603 5.86168
RightHand  0.038841 -5.7932 -15.6292
LeftUpLeg  -30.6937 7.72916 11.0063
LeftLeg  98.5371 0.514607 -4.29344
LeftFoot  -15.9772 -0.198642 -7.26277
LeftToes  -4.79707e-012 -5.93756e-011 -7.55542e-012
912
root  57.432 32.8291 -71.2837 -177.819 -17.1693 -171.148
RightUpLeg  -22.1804 7.72177 1.74854
RightLeg  61.7194 3.38688 6.29896
RightFoot  -43.487 0.86873 4.05481
RightToes  5.38607e-012 1.2921e-014 -6.02303e-014
Spine  13.6409 -5.15394 -8.56996
Spine1  -7.32323 -6.57228 2.55657
HEad  -15.2525 52.8283 -27.8122
LeftShoulder1  2.8831 -9.55152 -15.9087
LeftArm  -13.9635 -7.19144 -38.5205
LeftForeArm  18.0372 7.32701 -8.64627
LeftHand  0.051455 6.6543 7.20557
RightShoulder  0.786243 0.567052 13.2219
RightArm  -10.596 31.1743 53.656
RightForeArm  37.6629 40.999 7.29906
RightHand  -0.0425643 -5.16092 -13.5429
LeftUpLeg  -40.3636 6.5509 13.8229
LeftLeg  96.9477 -0.552115 1.71146
LeftFoot  -17.339 -0.0986305 -3.86516
LeftToes  -4.79707e-012 -5.93756e-011 -7.55542e-012
913
root  55.1818 33.3088 -73.4604 -178.795 -17.5823 -173.054
RightUpLeg  -12.3037 6.23354 -2.74411
RightLeg  55.6066 5.67116 8.44683
RightFoot  -44.0984 1.20086 5.11929
RightToes  5.38607e-012 1.2921e-014 -6.02303e-014
Spine  11.0845 -3.4549 -9.45568
Spine1  -3.82213 -4.73184 0.451698
HEad  -4.43071 51.0436 -18.5017
LeftShoulder1  2.54536 -7.86324 -16.3115
LeftArm  -11.946 -3.60968 -39.262
LeftForeArm  19.4865 7.3841 -9.0354
LeftHand  -0.0137962 5.53084 7.08056
RightShoulder  0.969473 1.53747 12.9801
RightArm  -7.31107 31.1533 54.8405
RightForeArm  37.2578 41.3259 7.42252
RightHand  -0.092192 -4.66281 -12.2719
LeftUpLeg  -46.8677 6.32895 14.9258
LeftLeg  87.2896 -0.198289 6.19297
LeftFoot  -18.2181 -0.0335904 -2.37672
LeftToes  -4.79707e-012 -5.93756e-011 -7.55542e-012
914
root  52.7551 34.0856 -75.657 -179.106 -20.1792 -174.236
RightUpLeg  -2.64361 6.22611 -6.33575
RightLeg  47.7052 8.28815 9.33295
RightFoot  -39.9382 1.96932 8.79064
RightToes  5.38607e-012 1.2921e-014 -6.02303e-014
Spine  8.83019 -1.93732 -10.2971
Spine1  -0.602652 -3.24962 0.373164
HEad  3.16915 45.5117 -10.3429
LeftShoulder1  2.24063 -6.23063 -17.0811
LeftArm  -11.77 -3.56547 -41.4412
LeftForeArm  21.8608 7.36066 -8.97008
LeftHand  -0.039018 5.08264 6.97782
RightShoulder  1.14038 2.2307 13.6621
RightArm  -6.97945 27.396 54.5223
RightForeArm  37.1371 38.658 6.654
RightHand  0.0101235 -5.6368 -13.0917
LeftUpLeg  -50.8415 5.00107 14.6796
LeftLeg  70.8401 1.93075 7.13745
LeftFoot  -16.4558 0.0117988 -1.94473
LeftToes  -4.79707e-012 -5.93756e-011 -7.55542e-012
915
root  50.1908 34.6357 -77.8438 -179.002 -23.2059 -173.8
RightUpLeg  4.23758 8.00272 -7.64593
RightLeg  42.6259 10.8866 10.2854
RightFoot  -32.0911 2.24156 13.3898
RightToes  5.38607e-012 1.2921e-014 -6.02303e-014
Spine  7.58951 -0.570396 -8.71352
Spine1  0.714892 -1.81937 -0.549842
HEad  6.00582 35.0657 -4.41576
LeftShoulder1  2.02968 -5.31234 -17.1408
LeftArm  -10.9148 -2.7518 -44.6537
LeftForeArm  20.4498 7.39476 -9.131
LeftHand  -0.0422443 5.02908 7.09313
RightShoulder  1.29886 2.5061 15.6071
RightArm  -7.0757 22.4966 53.1492
RightForeArm  35.5441 32.8235 5.23245
RightHand  0.163588 -6.865 -14.4077
LeftUpLeg  -52.9736 4.89156 13.5609
LeftLeg  51.9802 4.52215 6.65186
LeftFoot  -9.71005 0.0911496 -2.31022
LeftToes  -4.79707e-012 -5.93756e-011 -7.55542e-012
916
root  47.4981 34.9221 -80.043 -179.001 -24.9702 -172.77
RightUpLeg  7.48488 12.3144 -7.34916
RightLeg  42.5353 11.5785 10.8992
RightFoot  -21.2742 1.15356 14.8683
RightToes  5.38607e-012 1.2921e-014 -6.02303e-014
Spine  6.75455 0.180903 -7.61388
Spine1  1.62804 -1.20614 -0.773333
HEad  2.69909 23.7389 -1.34018
LeftShoulder1  2.00348 -5.07313 -17.531
LeftArm  -10.1182 -0.502739 -46.1469
LeftForeArm  21.6414 5.20858 -9.57052
LeftHand  -0.055896 4.7572 6.69863
RightShoulder  1.54255 3.04544 17.75
RightArm  -4.05299 19.1348 52.1846
RightForeArm  33.8265 25.2462 3.62629
RightHand  0.0110611 -5.61302 -14.2963
LeftUpLeg  -52.6103 7.13467 10.5406
LeftLeg  36.1489 6.25607 5.25015
LeftFoot  -5.36891 0.384511 -6.74957
LeftToes  -4.79707e-012 -5.93756e-011 -7.55542e-012
